<?xml version="1.0" encoding="UTF-8" standalone="no"?>
<!-- Created with Inkscape (http://www.inkscape.org/) -->

<svg
   width="215.58023mm"
   height="137.89096mm"
   viewBox="0 0 215.58023 137.89096"
   version="1.1"
   id="svg1"
   xml:space="preserve"
   xmlns:inkscape="http://www.inkscape.org/namespaces/inkscape"
   xmlns:sodipodi="http://sodipodi.sourceforge.net/DTD/sodipodi-0.dtd"
   xmlns="http://www.w3.org/2000/svg"
   xmlns:svg="http://www.w3.org/2000/svg"><sodipodi:namedview
     id="namedview1"
     pagecolor="#ffffff"
     bordercolor="#000000"
     borderopacity="0.25"
     inkscape:showpageshadow="2"
     inkscape:pageopacity="0.0"
     inkscape:pagecheckerboard="0"
     inkscape:deskcolor="#d1d1d1"
     inkscape:document-units="mm" /><defs
     id="defs1" /><g
     inkscape:label="Capa 1"
     inkscape:groupmode="layer"
     id="layer1"
     transform="matrix(0.99788333,0,0,0.99788333,47.268995,-153.26731)"
     inkscape:export-filename="Safe Moovment svg.svg"
     inkscape:export-xdpi="96"
     inkscape:export-ydpi="96"><path
       style="display:none;fill:#1a1a1a;fill-opacity:1;fill-rule:evenodd;stroke:none;stroke-width:8.2308;stroke-linecap:round;stroke-linejoin:round;stroke-dasharray:none;stroke-opacity:1"
       id="path15"
       sodipodi:type="arc"
       sodipodi:cx="60.649494"
       sodipodi:cy="222.68414"
       sodipodi:rx="125"
       sodipodi:ry="125"
       sodipodi:start="1.8013876"
       sodipodi:end="1.7819064"
       sodipodi:open="true"
       sodipodi:arc-type="arc"
       d="M 32.080346,344.37557 A 125,125 0 0 1 -61.179631,194.70801 125,125 0 0 1 88.031958,100.72021 125,125 0 0 1 182.74534,249.47228 125,125 0 0 1 34.456312,344.90901" /><g
       id="g16"
       transform="translate(-10.717869,-1.127969)"><path
         style="fill:none;fill-rule:evenodd;stroke:#f3f4ee;stroke-width:7.4;stroke-linecap:round;stroke-linejoin:round;stroke-dasharray:none;stroke-opacity:1"
         d="M 47.788017,260.95698 C 28.193335,249.79443 14.93949,230.9323 5.5665505,207.35764 c -36.2413395,3.43839 -48.4455155,40.91118 -30.0211065,63.88054 23.81327284,29.45998 54.533176,16.26083 71.42009,-8.08788 6.76691,-8.32672 13.245175,-17.25478 24.26364,-16.72409 6.37435,-0.49775 13.320701,-1.20104 19.054498,-3.1529 8.02404,-0.76077 19.156518,4.45739 23.852368,1.37083 10.8062,-10.01802 13.4031,-12.98791 6.16874,-20.69949 l -18.64326,-19.32867 c -2.510306,-5.23421 -0.94238,-10.01528 -9.321612,-15.90159 -10.039381,-6.52153 -13.286692,-15.81483 -22.755727,-13.29702 -7.460603,1.99992 -11.110653,2.37808 -16.724101,-0.54834 -9.502239,-6.34867 -9.606848,-11.85627 -11.652029,-16.44992 -0.298922,11.25649 1.010315,19.33147 6.031644,27.00529 -8.798215,-5.05641 -17.673761,-9.98789 -31.117778,-7.53954 3.466867,11.7121 11.16518,18.75502 25.223205,18.78033 l -24.400721,6.16872 c 9.236409,18.56996 20.77896,35.73617 38.383157,49.21269"
         id="path8"
         sodipodi:nodetypes="cccccccccccccccccc" /><path
         style="fill:none;fill-rule:evenodd;stroke:#f3f4ee;stroke-width:7.4;stroke-linecap:round;stroke-linejoin:round;stroke-dasharray:none;stroke-opacity:1"
         d="m 108.78982,212.29262 c -7.97131,-0.37923 -23.895115,26.63409 -18.711778,30.08965"
         id="path9"
         sodipodi:nodetypes="cc" /><path
         style="fill:none;fill-rule:evenodd;stroke:#f3f4ee;stroke-width:7.4;stroke-linecap:round;stroke-linejoin:round;stroke-dasharray:none;stroke-opacity:1"
         d="M 91.928655,230.38753 C 72.922898,221.3675 55.452688,219.5841 33.531421,228.05713"
         id="path10"
         sodipodi:nodetypes="cc" /><path
         style="fill:none;fill-rule:evenodd;stroke:#f3f4ee;stroke-width:7.4;stroke-linecap:round;stroke-linejoin:round;stroke-dasharray:none;stroke-opacity:1"
         id="path12"
         sodipodi:type="arc"
         sodipodi:cx="60.536697"
         sodipodi:cy="263.83569"
         sodipodi:rx="7.8137145"
         sodipodi:ry="8.0878801"
         sodipodi:start="1.8013876"
         sodipodi:end="1.7819064"
         sodipodi:open="true"
         sodipodi:arc-type="arc"
         d="m 58.750848,271.7095 a 7.8137145,8.0878801 0 0 1 -5.829655,-9.68395 7.8137145,8.0878801 0 0 1 9.327174,-6.08129 7.8137145,8.0878801 0 0 1 5.920507,9.62471 7.8137145,8.0878801 0 0 1 -9.269505,6.17504" /><path
         style="fill:none;fill-rule:evenodd;stroke:#f3f4ee;stroke-width:7.4;stroke-linecap:round;stroke-linejoin:round;stroke-dasharray:none;stroke-opacity:1"
         d="m 55.875904,270.2786 c 14.177721,15.21811 40.250262,33.04232 67.444706,1.37083 l 51.68016,-56.47808"
         id="path13"
         sodipodi:nodetypes="ccc" /><path
         style="fill:none;fill-rule:evenodd;stroke:#f3f4ee;stroke-width:7.4;stroke-linecap:round;stroke-linejoin:round;stroke-dasharray:none;stroke-opacity:1"
         d="m 146.76174,221.61424 28.92446,-8.08788 -4.66082,30.1582"
         id="path14" /></g></g></svg>
